<svg width="1775" height="533" viewBox="0 0 1775 533" fill="none" xmlns="http://www.w3.org/2000/svg">
<path d="M28.6932 435.5V144.591H137.784C160.133 144.591 178.883 148.473 194.034 156.239C209.28 164.004 220.786 174.894 228.551 188.909C236.411 202.83 240.341 219.07 240.341 237.631C240.341 256.286 236.364 272.479 228.409 286.21C220.549 299.847 208.949 310.405 193.608 317.886C178.267 325.273 159.422 328.966 137.074 328.966H59.375V285.216H129.972C143.04 285.216 153.741 283.417 162.074 279.818C170.407 276.125 176.563 270.775 180.54 263.767C184.612 256.665 186.648 247.953 186.648 237.631C186.648 227.309 184.612 218.502 180.54 211.21C176.468 203.824 170.265 198.237 161.932 194.449C153.598 190.566 142.85 188.625 129.688 188.625H81.392V435.5H28.6932ZM178.977 303.682L250.994 435.5H192.188L121.449 303.682H178.977ZM360.043 439.761C338.168 439.761 319.276 435.216 303.366 426.125C287.552 416.939 275.384 403.966 266.861 387.205C258.338 370.348 254.077 350.509 254.077 327.688C254.077 305.244 258.338 285.547 266.861 268.597C275.478 251.551 287.505 238.294 302.94 228.824C318.376 219.259 336.51 214.477 357.344 214.477C370.791 214.477 383.48 216.655 395.412 221.011C407.438 225.273 418.045 231.902 427.23 240.898C436.51 249.894 443.802 261.352 449.105 275.273C454.408 289.098 457.06 305.576 457.06 324.705V340.472H278.224V305.812H407.77C407.675 295.964 405.545 287.205 401.378 279.534C397.211 271.769 391.387 265.661 383.906 261.21C376.52 256.759 367.902 254.534 358.054 254.534C347.543 254.534 338.31 257.091 330.355 262.205C322.401 267.223 316.198 273.852 311.747 282.091C307.391 290.235 305.166 299.184 305.071 308.938V339.193C305.071 351.883 307.391 362.773 312.031 371.864C316.671 380.86 323.158 387.773 331.491 392.602C339.825 397.337 349.579 399.705 360.753 399.705C368.234 399.705 375.005 398.663 381.065 396.58C387.126 394.402 392.382 391.229 396.832 387.062C401.283 382.896 404.645 377.735 406.918 371.58L454.929 376.977C451.899 389.667 446.122 400.746 437.599 410.216C429.171 419.591 418.376 426.883 405.213 432.091C392.05 437.205 376.993 439.761 360.043 439.761ZM488.561 517.318V217.318H539.129V253.398H542.112C544.764 248.095 548.504 242.46 553.334 236.494C558.163 230.434 564.697 225.273 572.936 221.011C581.175 216.655 591.686 214.477 604.47 214.477C621.326 214.477 636.525 218.786 650.067 227.403C663.703 235.926 674.499 248.568 682.453 265.33C690.502 281.996 694.527 302.451 694.527 326.693C694.527 350.652 690.597 371.011 682.737 387.773C674.877 404.534 664.177 417.318 650.635 426.125C637.093 434.932 621.752 439.335 604.612 439.335C592.112 439.335 581.743 437.252 573.504 433.085C565.266 428.919 558.637 423.9 553.618 418.028C548.694 412.062 544.858 406.428 542.112 401.125H539.982V517.318H488.561ZM538.987 326.409C538.987 340.519 540.976 352.877 544.953 363.483C549.025 374.089 554.849 382.375 562.425 388.341C570.095 394.212 579.375 397.148 590.266 397.148C601.629 397.148 611.146 394.117 618.817 388.057C626.487 381.902 632.264 373.521 636.146 362.915C640.124 352.214 642.112 340.045 642.112 326.409C642.112 312.867 640.171 300.841 636.288 290.33C632.406 279.818 626.629 271.58 618.959 265.614C611.288 259.648 601.724 256.665 590.266 256.665C579.281 256.665 569.953 259.553 562.283 265.33C554.612 271.106 548.788 279.203 544.811 289.619C540.929 300.036 538.987 312.299 538.987 326.409ZM777.982 144.591V435.5H726.561V144.591H777.982ZM818.858 435.5V217.318H870.278V435.5H818.858ZM844.71 186.352C836.566 186.352 829.559 183.653 823.688 178.256C817.816 172.763 814.881 166.182 814.881 158.511C814.881 150.746 817.816 144.165 823.688 138.767C829.559 133.275 836.566 130.528 844.71 130.528C852.949 130.528 859.956 133.275 865.733 138.767C871.604 144.165 874.54 150.746 874.54 158.511C874.54 166.182 871.604 172.763 865.733 178.256C859.956 183.653 852.949 186.352 844.71 186.352ZM1021.67 217.318V257.091H892.689V217.318H1021.67ZM924.933 435.5V196.722C924.933 182.044 927.964 169.828 934.024 160.074C940.179 150.32 948.418 143.028 958.74 138.199C969.062 133.369 980.52 130.955 993.115 130.955C1002.02 130.955 1009.92 131.665 1016.84 133.085C1023.75 134.506 1028.86 135.784 1032.18 136.92L1021.95 176.693C1019.77 176.03 1017.03 175.367 1013.71 174.705C1010.4 173.947 1006.7 173.568 1002.63 173.568C993.068 173.568 986.297 175.888 982.32 180.528C978.437 185.074 976.496 191.608 976.496 200.131V435.5H924.933ZM1081.9 517.318C1074.89 517.318 1068.4 516.75 1062.44 515.614C1056.56 514.572 1051.88 513.341 1048.37 511.92L1060.31 471.864C1067.79 474.042 1074.46 475.083 1080.33 474.989C1086.21 474.894 1091.37 473.047 1095.82 469.449C1100.36 465.945 1104.2 460.074 1107.32 451.835L1111.73 440.045L1032.61 217.318H1087.15L1137.44 382.091H1139.71L1190.13 217.318H1244.82L1157.46 461.92C1153.39 473.473 1147.99 483.369 1141.27 491.608C1134.55 499.941 1126.31 506.286 1116.56 510.642C1106.9 515.093 1095.34 517.318 1081.9 517.318Z" fill="#00A4FD"/>
<path d="M1567.46 268.203C1566.7 269.035 1565.9 269.84 1565.08 270.615L1534.63 299.11L1470.7 239.277L1502.49 207.396L1567.46 268.203ZM1511.59 0C1538.04 0 1563.53 9.02862 1584 25.376C1604.47 9.02861 1629.96 0 1656.41 0H1658.31C1722.54 0 1774.5 52.191 1774.5 116.445C1774.5 148.704 1761.15 179.52 1737.62 201.549V201.55L1677.72 257.605C1678.57 251.29 1679 244.891 1679 238.445C1679 225.029 1677.16 212.036 1673.73 199.705L1706.87 168.693C1721.3 155.189 1729.5 136.275 1729.5 116.445C1729.5 76.9274 1697.57 45 1658.31 45H1656.41C1637.54 45 1619.45 52.5089 1606.09 65.9033L1599.93 72.0801L1584 88.0557L1568.07 72.0801L1561.91 65.9033C1548.55 52.5089 1530.46 45 1511.59 45H1509.69C1474.69 45 1445.52 70.3713 1439.6 103.874C1425.59 98.5444 1410.73 95.4031 1395.53 94.668C1405.7 40.802 1452.9 0 1509.69 0H1511.59Z" fill="#00A4FD"/>
<path d="M1342.72 408.047V299.922H1367.25V408.047H1342.72ZM1300.92 366.25V341.719H1409.05V366.25H1300.92Z" fill="#00A4FD"/>
<path d="M1388.59 122C1415.04 122 1440.53 131.029 1461 147.376C1481.47 131.029 1506.96 122 1533.41 122H1535.31C1599.54 122 1651.5 174.191 1651.5 238.445C1651.5 270.704 1638.15 301.52 1614.62 323.549V323.55L1476.38 452.928L1461 467.316L1445.62 452.928L1403.66 413.655L1435.8 382.101L1461 405.683L1583.87 290.693C1598.3 277.189 1606.5 258.275 1606.5 238.445C1606.5 198.927 1574.57 167 1535.31 167H1533.41C1514.54 167 1496.45 174.509 1483.09 187.903L1476.93 194.08L1461 210.056L1445.07 194.08L1438.91 187.903C1425.55 174.509 1407.46 167 1388.59 167H1386.69C1347.43 167 1315.5 198.927 1315.5 238.445C1315.5 254.426 1320.83 269.812 1330.45 282.251L1298.2 313.91C1280.41 292.956 1270.5 266.237 1270.5 238.445C1270.5 174.191 1322.46 122 1386.69 122H1388.59Z" fill="#00A4FD"/>
</svg>
